<svg xmlns="http://www.w3.org/2000/svg" width="1003" height="1046" viewBox="0 0 1003 1046">
<g>
<path d="M 493.30,1042.25 L 492.55,1041.67 L 490.54,1040.11 L 489.46,1039.27 L 486.88,1037.23 L 485.52,1036.16 L 482.45,1033.72 L 480.86,1032.46 L 477.41,1029.70 L 475.64,1028.28 L 471.90,1025.29 L 470.00,1023.76 L 466.07,1020.60 L 462.11,1017.41 L 454.03,1010.89 L 450.04,1007.66 L 442.47,1001.51 L 440.64,1000.03 L 437.23,997.25 L 435.57,995.89 L 432.54,993.42 L 431.09,992.23 L 428.57,990.14 L 427.37,989.16 L 425.44,987.54 L 424.55,986.80 L 423.31,985.74 L 422.32,984.85 L 422.26,984.79 L 421.92,984.26 L 421.71,983.92 L 421.05,982.83 L 420.69,982.23 L 419.74,980.61 L 419.22,979.74 L 417.98,977.61 L 417.33,976.49 L 415.80,973.87 L 415.01,972.50 L 413.22,969.40 L 412.29,967.80 L 410.24,964.24 L 409.19,962.41 L 406.89,958.41 L 405.71,956.36 L 403.18,951.94 L 401.88,949.68 L 399.12,944.86 L 397.71,942.40 L 394.73,937.19 L 393.21,934.54 L 390.02,928.96 L 388.40,926.13 L 385.01,920.20 L 383.30,917.19 L 379.72,910.93 L 377.91,907.75 L 374.16,901.18 L 372.26,897.85 L 368.34,890.97 L 366.36,887.50 L 362.28,880.34 L 360.22,876.73 L 356.00,869.31 L 353.87,865.57 L 349.50,857.91 L 347.31,854.05 L 342.82,846.16 L 338.30,838.21 L 328.92,821.73 L 324.18,813.39 L 314.43,796.23 L 309.51,787.58 L 299.46,769.89 L 294.41,760.99 L 284.14,742.91 L 273.84,724.76 L 252.93,687.90 L 242.48,669.48 L 221.77,632.92 L 216.63,623.86 L 206.51,605.98 L 201.48,597.10 L 191.63,579.69 L 186.74,571.06 L 177.24,554.26 L 172.54,545.95 L 163.48,529.91 L 161.24,525.96 L 156.86,518.21 L 154.69,514.36 L 150.45,506.85 L 148.35,503.13 L 144.25,495.88 L 142.22,492.28 L 138.29,485.30 L 136.34,481.85 L 132.57,475.16 L 130.70,471.85 L 127.11,465.47 L 125.33,462.33 L 121.92,456.27 L 120.24,453.29 L 117.03,447.58 L 115.45,444.77 L 112.45,439.43 L 110.97,436.80 L 108.18,431.84 L 106.82,429.40 L 104.26,424.84 L 103.01,422.60 L 100.68,418.45 L 99.55,416.43 L 97.48,412.72 L 96.47,410.91 L 94.65,407.65 L 93.78,406.08 L 92.23,403.28 L 91.49,401.94 L 90.22,399.64 L 89.61,398.55 L 88.63,396.75 L 88.17,395.91 L 87.49,394.63 L 87.18,394.06 L 86.80,393.32 L 86.60,392.85 L 86.76,392.58 L 87.37,392.29 L 88.39,392.32 L 88.47,392.35 L 89.02,392.71 L 89.35,392.94 L 90.35,393.66 L 90.90,394.06 L 92.30,395.11 L 93.05,395.66 L 94.80,396.98 L 95.71,397.67 L 97.75,399.23 L 98.81,400.03 L 101.08,401.78 L 108.54,407.55 L 110.47,409.05 L 114.62,412.26 L 116.73,413.89 L 121.19,417.31 L 125.71,420.77 L 135.31,428.05 L 140.15,431.71 L 149.92,439.03 L 154.76,442.66 L 164.03,449.54 L 166.28,451.21 L 170.59,454.39 L 172.70,455.94 L 176.66,458.84 L 178.59,460.25 L 182.12,462.81 L 183.82,464.04 L 186.83,466.20 L 188.27,467.23 L 190.69,468.93 L 191.81,469.72 L 193.56,470.90 L 194.34,471.42 L 195.32,472.03 L 195.51,472.14 L 195.75,472.24 L 195.85,472.21 L 195.83,472.15 L 195.50,471.79 L 195.28,471.56 L 194.55,470.86 L 194.14,470.46 L 192.99,469.40 L 192.36,468.82 L 190.79,467.38 L 189.94,466.61 L 187.92,464.79 L 186.84,463.82 L 184.35,461.60 L 183.05,460.43 L 180.07,457.78 L 178.52,456.41 L 175.04,453.33 L 173.24,451.73 L 169.25,448.21 L 167.19,446.39 L 162.66,442.39 L 160.33,440.34 L 155.25,435.87 L 152.64,433.58 L 146.99,428.61 L 144.09,426.07 L 137.86,420.60 L 134.67,417.80 L 127.84,411.80 L 124.34,408.74 L 116.89,402.21 L 104.99,391.79 L 102.35,389.47 L 97.22,384.96 L 94.69,382.73 L 89.89,378.48 L 87.54,376.39 L 83.17,372.50 L 81.05,370.61 L 77.23,367.17 L 75.40,365.51 L 72.23,362.63 L 71.48,361.95 L 70.13,360.71 L 69.48,360.11 L 68.33,359.05 L 67.79,358.53 L 66.85,357.65 L 66.42,357.24 L 65.71,356.56 L 65.39,356.24 L 64.93,355.77 L 64.53,355.31 L 64.37,355.08 L 63.89,354.35 L 63.63,353.93 L 62.95,352.84 L 62.59,352.25 L 61.74,350.84 L 61.29,350.09 L 60.28,348.37 L 59.75,347.47 L 58.58,345.47 L 57.98,344.44 L 56.67,342.18 L 55.33,339.87 L 52.30,334.59 L 50.73,331.86 L 47.33,325.89 L 45.59,322.84 L 41.93,316.38 L 38.22,309.83 L 30.51,296.11 L 28.59,292.69 L 24.82,285.94 L 22.96,282.60 L 19.38,276.16 L 17.62,273.00 L 14.34,267.06 L 12.75,264.17 L 9.87,258.93 L 9.19,257.67 L 7.91,255.32 L 7.29,254.18 L 6.15,252.08 L 5.60,251.06 L 4.61,249.22 L 4.14,248.34 L 3.33,246.79 L 2.94,246.06 L 2.31,244.84 L 2.02,244.27 L 1.58,243.38 L 1.39,242.99 L 1.17,242.47 L 1.08,242.14 L 1.23,242.09 L 1.79,242.23 L 2.10,242.34 L 2.91,242.75 L 5.82,244.72 L 5.98,244.84 L 6.63,245.35 L 7.01,245.65 L 8.09,246.49 L 8.68,246.95 L 10.15,248.11 L 10.94,248.72 L 12.78,250.15 L 13.75,250.91 L 15.93,252.61 L 17.06,253.49 L 19.56,255.43 L 20.84,256.43 L 23.62,258.60 L 25.04,259.70 L 28.07,262.06 L 29.62,263.27 L 32.88,265.80 L 34.53,267.09 L 37.99,269.78 L 41.49,272.50 L 48.97,278.31 L 52.77,281.27 L 60.66,287.41 L 64.64,290.50 L 72.73,296.79 L 76.78,299.93 L 84.84,306.19 L 88.84,309.30 L 96.63,315.35 L 100.48,318.34 L 107.78,324.01 L 111.35,326.78 L 117.93,331.89 L 119.53,333.13 L 122.53,335.46 L 124.01,336.60 L 126.76,338.74 L 128.10,339.78 L 130.56,341.69 L 131.76,342.61 L 133.91,344.28 L 134.94,345.08 L 136.74,346.48 L 137.60,347.14 L 139.04,348.25 L 139.71,348.77 L 140.74,349.57 L 141.81,350.39 L 142.68,351.05 L 144.30,352.23 L 145.07,352.78 L 146.40,353.67 L 147.01,354.06 L 147.89,354.56 L 148.56,354.77 L 148.57,354.76 L 148.50,354.50 L 148.45,354.34 L 148.25,353.80 L 148.13,353.50 L 147.81,352.69 L 147.63,352.25 L 147.19,351.19 L 146.72,350.06 L 145.46,347.10 L 144.79,345.52 L 143.14,341.74 L 142.28,339.75 L 140.31,335.26 L 139.29,332.94 L 137.04,327.86 L 135.89,325.26 L 133.42,319.72 L 129.51,311.00 L 128.17,308.02 L 125.59,302.26 L 124.31,299.42 L 121.90,294.03 L 120.72,291.40 L 118.54,286.50 L 117.48,284.13 L 115.58,279.86 L 114.67,277.81 L 113.11,274.28 L 112.38,272.63 L 111.21,269.97 L 110.95,269.36 L 110.50,268.33 L 110.29,267.85 L 109.96,267.09 L 109.81,266.74 L 109.61,266.25 L 109.45,265.83 L 109.31,265.40 L 109.47,264.82 L 109.57,264.70 L 110.00,264.50 L 110.25,264.41 L 111.04,264.27 L 111.49,264.21 L 112.73,264.13 L 113.42,264.09 L 115.20,264.04 L 116.16,264.03 L 118.56,264.01 L 122.96,264.00 L 137.05,264.00 L 142.84,276.25 L 143.04,276.67 L 143.56,277.78 L 143.84,278.38 L 144.52,279.82 L 144.88,280.58 L 145.71,282.34 L 146.13,283.25 L 147.09,285.30 L 147.59,286.36 L 148.67,288.67 L 149.23,289.86 L 150.43,292.41 L 151.65,295.02 L 154.40,300.88 L 155.81,303.90 L 158.88,310.44 L 160.44,313.78 L 163.73,320.81 L 174.06,342.90 L 175.77,346.55 L 178.89,353.21 L 180.40,356.43 L 183.16,362.29 L 184.49,365.13 L 186.92,370.24 L 188.10,372.71 L 190.23,377.14 L 191.26,379.27 L 193.13,383.06 L 194.03,384.88 L 195.67,388.08 L 196.46,389.62 L 197.89,392.30 L 198.58,393.58 L 199.84,395.78 L 200.45,396.83 L 201.57,398.61 L 202.11,399.45 L 203.12,400.87 L 203.61,401.54 L 204.54,402.64 L 205.00,403.16 L 205.89,404.00 L 206.77,404.79 L 208.52,405.82 L 211.40,406.97 L 212.43,407.31 L 214.17,407.71 L 214.55,407.78 L 215.11,407.83 L 215.58,407.76 L 215.64,407.70 L 215.50,407.04 L 215.39,406.64 L 214.97,405.42 L 214.73,404.75 L 214.07,403.12 L 212.89,400.41 L 212.83,400.29 L 212.61,399.80 L 212.48,399.52 L 212.11,398.70 L 211.91,398.26 L 211.40,397.13 L 211.12,396.52 L 210.47,395.08 L 210.12,394.33 L 209.33,392.59 L 208.92,391.68 L 207.99,389.65 L 207.51,388.60 L 206.46,386.29 L 205.91,385.10 L 204.73,382.51 L 204.13,381.18 L 202.83,378.33 L 202.16,376.87 L 200.75,373.76 L 200.02,372.17 L 198.49,368.81 L 197.71,367.10 L 196.07,363.50 L 194.40,359.84 L 190.76,351.84 L 188.88,347.73 L 184.85,338.88 L 182.78,334.36 L 178.39,324.72 L 176.15,319.81 L 171.44,309.47 L 169.04,304.21 L 164.03,293.22 L 161.49,287.65 L 156.21,276.08 L 153.54,270.23 L 148.04,258.15 L 145.26,252.05 L 139.55,239.54 L 136.67,233.23 L 130.79,220.34 L 121.82,200.66 L 118.80,194.03 L 112.86,181.00 L 109.91,174.53 L 104.14,161.87 L 101.27,155.59 L 95.70,143.36 L 92.94,137.31 L 87.60,125.58 L 84.96,119.79 L 79.88,108.63 L 77.37,103.13 L 72.58,92.60 L 70.22,87.43 L 65.75,77.60 L 63.56,72.79 L 59.43,63.73 L 57.42,59.30 L 53.68,51.08 L 51.86,47.08 L 48.53,39.76 L 47.73,37.99 L 46.20,34.63 L 45.45,32.98 L 44.04,29.87 L 43.35,28.35 L 42.05,25.49 L 41.42,24.10 L 40.24,21.51 L 39.67,20.25 L 38.62,17.93 L 38.11,16.80 L 37.18,14.77 L 36.74,13.79 L 35.95,12.04 L 35.57,11.21 L 34.92,9.76 L 34.61,9.07 L 34.09,7.93 L 33.86,7.40 L 33.49,6.58 L 33.32,6.20 L 33.10,5.70 L 32.93,5.32 L 32.62,4.50 L 32.39,3.24 L 32.34,2.67 L 32.62,1.96 L 32.81,1.67 L 33.56,1.55 L 35.17,2.09 L 35.24,2.13 L 35.74,2.44 L 36.05,2.64 L 37.00,3.25 L 37.54,3.60 L 38.92,4.50 L 39.67,4.99 L 41.46,6.16 L 42.41,6.78 L 44.58,8.21 L 45.72,8.95 L 48.25,10.62 L 49.56,11.48 L 52.43,13.37 L 53.90,14.34 L 57.07,16.44 L 58.70,17.51 L 62.16,19.79 L 63.92,20.96 L 67.64,23.41 L 69.53,24.66 L 73.49,27.28 L 75.49,28.60 L 79.66,31.36 L 83.87,34.15 L 92.83,40.08 L 106.86,49.39 L 116.44,55.74 L 135.74,68.54 L 140.49,71.69 L 149.72,77.80 L 154.27,80.81 L 162.89,86.53 L 164.99,87.92 L 169.05,90.60 L 171.04,91.93 L 174.86,94.45 L 176.73,95.69 L 180.28,98.04 L 182.01,99.19 L 185.26,101.33 L 186.84,102.38 L 189.74,104.30 L 191.15,105.24 L 193.70,106.92 L 194.92,107.72 L 197.06,109.14 L 199.80,110.94 L 202.19,112.52 L 206.33,115.27 L 208.29,116.58 L 211.63,118.85 L 213.20,119.92 L 215.83,121.77 L 217.07,122.65 L 219.09,124.15 L 220.04,124.87 L 221.54,126.10 L 222.24,126.69 L 223.33,127.72 L 223.83,128.21 L 224.59,129.12 L 225.47,130.40 L 225.50,130.45 L 225.69,130.83 L 225.80,131.07 L 226.15,131.80 L 226.35,132.21 L 226.86,133.29 L 227.14,133.88 L 227.80,135.29 L 228.16,136.04 L 228.98,137.79 L 229.40,138.71 L 230.37,140.77 L 230.87,141.85 L 231.99,144.22 L 232.56,145.45 L 233.81,148.13 L 234.45,149.50 L 235.84,152.48 L 236.55,154.00 L 238.06,157.25 L 238.84,158.92 L 240.48,162.45 L 241.32,164.24 L 243.08,168.04 L 243.98,169.97 L 245.87,174.02 L 246.82,176.08 L 248.82,180.38 L 250.85,184.74 L 255.23,194.16 L 257.47,198.98 L 262.25,209.28 L 264.69,214.53 L 269.84,225.63 L 272.46,231.27 L 277.94,243.10 L 280.73,249.09 L 286.52,261.57 L 289.45,267.89 L 295.50,280.96 L 298.56,287.56 L 304.86,301.14 L 308.03,307.98 L 314.53,322.00 L 317.80,329.06 L 324.47,343.44 L 327.82,350.68 L 334.62,365.36 L 338.03,372.73 L 344.94,387.64 L 351.86,402.59 L 365.87,432.85 L 372.88,447.99 L 386.86,478.21 L 393.83,493.26 L 407.52,522.86 L 410.91,530.19 L 417.59,544.64 L 420.91,551.83 L 427.43,565.93 L 430.66,572.92 L 436.98,586.60 L 440.11,593.37 L 446.20,606.55 L 449.21,613.07 L 455.03,625.67 L 457.91,631.90 L 463.43,643.86 L 466.15,649.76 L 471.34,661.01 L 478.71,677.00 L 480.12,680.06 L 482.86,685.97 L 484.20,688.87 L 486.77,694.38 L 488.03,697.07 L 490.37,702.06 L 491.50,704.47 L 493.55,708.80 L 494.54,710.88 L 496.24,714.44 L 497.04,716.11 L 498.34,718.77 L 498.64,719.38 L 499.14,720.39 L 499.38,720.87 L 499.77,721.62 L 499.94,721.95 L 500.20,722.42 L 500.43,722.78 L 500.67,723.04 L 501.09,723.34 L 501.30,723.46 L 501.70,723.46 L 501.90,723.42 L 502.35,723.11 L 503.17,722.28 L 503.22,722.22 L 503.51,721.71 L 503.68,721.39 L 504.19,720.37 L 504.48,719.81 L 505.21,718.32 L 505.60,717.52 L 506.53,715.59 L 507.02,714.57 L 508.15,712.23 L 508.73,711.00 L 510.04,708.26 L 510.71,706.84 L 512.18,703.74 L 512.94,702.14 L 514.56,698.70 L 515.39,696.94 L 517.15,693.18 L 518.05,691.26 L 519.94,687.22 L 520.91,685.17 L 522.92,680.86 L 523.93,678.68 L 526.05,674.15 L 528.18,669.56 L 532.71,659.80 L 539.79,644.50 L 554.02,613.68 L 582.67,551.67 L 589.81,536.23 L 603.97,505.60 L 611.02,490.35 L 624.91,460.31 L 628.36,452.85 L 635.19,438.09 L 638.59,430.74 L 645.31,416.22 L 648.65,408.99 L 655.24,394.75 L 658.52,387.67 L 664.97,373.74 L 668.17,366.82 L 674.46,353.24 L 677.58,346.49 L 683.69,333.29 L 686.73,326.75 L 692.65,313.96 L 695.58,307.63 L 701.30,295.30 L 704.13,289.19 L 709.62,277.34 L 712.33,271.49 L 717.58,260.16 L 720.18,254.57 L 725.17,243.80 L 727.63,238.49 L 732.36,228.31 L 734.68,223.29 L 739.12,213.74 L 741.30,209.04 L 745.43,200.15 L 747.45,195.79 L 751.27,187.59 L 753.13,183.58 L 756.60,176.10 L 758.30,172.46 L 761.42,165.76 L 762.94,162.50 L 765.69,156.59 L 767.02,153.74 L 769.39,148.66 L 770.52,146.23 L 772.49,142.02 L 773.43,140.03 L 774.98,136.72 L 775.70,135.18 L 776.82,132.81 L 777.08,132.28 L 777.50,131.40 L 777.69,130.99 L 778.00,130.35 L 778.14,130.06 L 778.33,129.68 L 778.49,129.38 L 778.54,129.30 L 779.13,128.81 L 779.50,128.52 L 780.69,127.63 L 781.36,127.14 L 783.13,125.88 L 784.08,125.20 L 786.39,123.58 L 787.61,122.73 L 790.43,120.78 L 791.90,119.76 L 795.20,117.50 L 796.90,116.33 L 800.64,113.78 L 802.56,112.46 L 806.72,109.64 L 808.84,108.20 L 813.38,105.13 L 815.69,103.56 L 820.58,100.27 L 823.06,98.59 L 828.26,95.09 L 830.90,93.32 L 836.38,89.64 L 839.16,87.78 L 844.90,83.94 L 847.80,82.00 L 853.76,78.02 L 872.31,65.67 L 875.57,63.51 L 881.77,59.39 L 884.82,57.37 L 890.61,53.52 L 893.46,51.63 L 898.86,48.04 L 901.51,46.28 L 906.53,42.95 L 908.99,41.31 L 913.64,38.23 L 915.92,36.71 L 920.22,33.86 L 922.33,32.46 L 926.29,29.83 L 928.23,28.55 L 931.87,26.13 L 933.65,24.96 L 936.98,22.75 L 938.60,21.68 L 941.63,19.67 L 943.11,18.70 L 945.85,16.88 L 947.19,16.00 L 949.67,14.37 L 950.88,13.57 L 953.10,12.11 L 954.18,11.40 L 956.15,10.10 L 957.12,9.48 L 958.87,8.33 L 959.72,7.78 L 961.25,6.78 L 962.74,5.82 L 965.13,4.29 L 966.23,3.59 L 967.95,2.52 L 968.73,2.04 L 969.88,1.37 L 970.39,1.07 L 971.08,0.72 L 971.39,0.58 L 971.73,0.48 L 971.88,0.45 L 971.99,0.52 L 972.00,1.07 L 972.00,1.09 L 971.88,1.39 L 971.80,1.59 L 971.52,2.24 L 971.36,2.61 L 970.93,3.59 L 970.70,4.13 L 970.12,5.44 L 969.81,6.13 L 969.09,7.76 L 968.71,8.61 L 967.84,10.55 L 967.39,11.56 L 966.39,13.80 L 965.87,14.95 L 964.73,17.48 L 964.15,18.78 L 962.88,21.59 L 962.24,23.04 L 960.84,26.12 L 960.13,27.70 L 958.62,31.05 L 957.85,32.76 L 956.22,36.37 L 955.39,38.20 L 953.65,42.06 L 952.76,44.02 L 950.91,48.12 L 949.03,52.27 L 944.95,61.27 L 942.87,65.87 L 938.40,75.71 L 936.13,80.72 L 931.31,91.34 L 928.86,96.73 L 923.72,108.05 L 921.11,113.79 L 915.67,125.75 L 912.92,131.80 L 907.22,144.33 L 904.35,150.65 L 898.42,163.67 L 895.43,170.24 L 889.30,183.69 L 879.92,204.27 L 876.71,211.32 L 870.41,225.14 L 867.29,232.00 L 861.21,245.37 L 858.20,252.00 L 852.35,264.86 L 849.46,271.23 L 843.89,283.52 L 841.14,289.58 L 835.87,301.23 L 833.27,306.97 L 828.32,317.93 L 825.89,323.31 L 821.29,333.49 L 819.04,338.48 L 814.83,347.84 L 812.78,352.40 L 808.98,360.86 L 808.06,362.92 L 806.30,366.85 L 805.43,368.79 L 803.79,372.48 L 802.98,374.29 L 801.44,377.72 L 800.69,379.41 L 799.28,382.58 L 798.59,384.13 L 797.30,387.04 L 796.68,388.46 L 795.52,391.08 L 794.95,392.36 L 793.92,394.70 L 793.43,395.83 L 792.53,397.88 L 792.10,398.87 L 791.35,400.61 L 790.99,401.44 L 790.37,402.88 L 790.09,403.56 L 789.62,404.68 L 789.40,405.19 L 789.08,405.99 L 788.94,406.34 L 788.78,406.80 L 788.70,407.10 L 788.88,407.28 L 789.51,407.37 L 789.86,407.38 L 790.78,407.16 L 791.27,407.01 L 792.41,406.53 L 792.99,406.26 L 794.26,405.56 L 795.55,404.81 L 798.19,402.87 L 801.61,399.63 L 802.10,399.06 L 803.35,397.24 L 804.00,396.23 L 805.45,393.77 L 809.71,385.50 L 810.54,383.69 L 812.51,379.40 L 813.54,377.16 L 815.86,372.12 L 817.06,369.52 L 819.67,363.88 L 821.01,361.00 L 823.85,354.89 L 825.29,351.79 L 828.28,345.37 L 829.79,342.13 L 832.87,335.52 L 835.96,328.90 L 842.13,315.71 L 843.65,312.47 L 846.60,306.18 L 848.06,303.08 L 850.83,297.18 L 852.19,294.29 L 854.72,288.92 L 855.95,286.31 L 858.17,281.62 L 859.24,279.37 L 861.08,275.49 L 861.52,274.57 L 862.30,272.93 L 862.68,272.13 L 863.35,270.74 L 863.67,270.08 L 864.22,268.95 L 864.47,268.43 L 864.88,267.59 L 865.07,267.21 L 865.34,266.68 L 865.57,266.25 L 865.93,265.71 L 866.69,264.99 L 866.92,264.84 L 867.53,264.59 L 867.86,264.48 L 868.75,264.32 L 869.24,264.25 L 870.51,264.15 L 871.20,264.10 L 872.95,264.05 L 873.90,264.03 L 876.24,264.01 L 880.52,264.00 L 881.79,264.00 L 884.01,264.02 L 885.07,264.03 L 886.90,264.06 L 887.77,264.09 L 889.23,264.15 L 889.92,264.18 L 891.05,264.27 L 891.58,264.32 L 892.40,264.44 L 892.78,264.51 L 893.32,264.66 L 894.00,265.25 L 894.00,265.29 L 893.90,265.60 L 893.83,265.79 L 893.60,266.38 L 893.47,266.72 L 893.12,267.58 L 892.93,268.04 L 892.46,269.15 L 891.96,270.33 L 890.66,273.37 L 889.95,275.00 L 888.27,278.85 L 887.39,280.87 L 885.38,285.42 L 884.34,287.77 L 882.07,292.89 L 880.90,295.51 L 878.41,301.08 L 874.50,309.80 L 873.16,312.78 L 870.58,318.52 L 869.32,321.33 L 866.93,326.66 L 865.76,329.27 L 863.62,334.07 L 862.58,336.39 L 860.73,340.55 L 859.84,342.54 L 858.34,345.94 L 857.64,347.53 L 856.54,350.04 L 856.29,350.60 L 855.88,351.55 L 855.69,351.99 L 855.40,352.67 L 855.27,352.98 L 855.10,353.39 L 855.00,353.67 L 855.00,353.80 L 855.14,353.94 L 855.24,353.98 L 855.60,353.92 L 855.82,353.85 L 856.44,353.56 L 856.79,353.38 L 857.72,352.84 L 858.22,352.53 L 859.48,351.69 L 860.15,351.24 L 861.78,350.10 L 862.65,349.48 L 864.69,348.00 L 865.76,347.22 L 868.25,345.37 L 869.55,344.39 L 872.53,342.15 L 874.08,340.97 L 877.57,338.31 L 879.39,336.92 L 883.44,333.80 L 885.54,332.18 L 890.19,328.59 L 892.60,326.73 L 897.88,322.62 L 900.60,320.51 L 906.56,315.87 L 909.63,313.48 L 916.29,308.28 L 927.12,299.82 L 929.55,297.93 L 934.17,294.32 L 936.44,292.54 L 940.76,289.17 L 942.88,287.51 L 946.91,284.36 L 948.89,282.82 L 952.63,279.89 L 954.47,278.46 L 957.94,275.74 L 959.65,274.41 L 962.86,271.90 L 964.43,270.68 L 967.39,268.36 L 968.84,267.23 L 971.57,265.11 L 972.90,264.07 L 975.39,262.13 L 976.61,261.18 L 978.88,259.41 L 981.09,257.69 L 984.92,254.72 L 986.73,253.32 L 989.81,250.94 L 991.26,249.82 L 993.67,247.97 L 994.81,247.11 L 996.64,245.73 L 997.49,245.09 L 998.83,244.11 L 999.44,243.66 L 1000.37,243.02 L 1000.78,242.74 L 1001.37,242.37 L 1001.63,242.21 L 1001.97,242.06 L 1002.12,242.01 L 1002.29,242.00 L 1002.58,242.25 L 1002.61,242.27 L 1002.48,242.63 L 1002.38,242.86 L 1002.02,243.61 L 1001.82,244.03 L 1001.25,245.14 L 1000.94,245.74 L 1000.17,247.19 L 999.77,247.96 L 998.82,249.72 L 998.33,250.64 L 997.21,252.69 L 996.63,253.74 L 995.37,256.05 L 994.72,257.24 L 993.31,259.78 L 991.87,262.38 L 988.65,268.16 L 986.99,271.14 L 983.40,277.53 L 981.58,280.78 L 977.75,287.56 L 975.82,290.98 L 971.87,297.95 L 969.89,301.43 L 965.93,308.38 L 963.96,311.83 L 960.11,318.55 L 958.21,321.86 L 954.59,328.14 L 952.82,331.21 L 949.55,336.85 L 948.76,338.21 L 947.26,340.77 L 946.53,342.03 L 945.16,344.36 L 944.49,345.49 L 943.27,347.57 L 942.67,348.57 L 941.60,350.36 L 941.08,351.22 L 940.18,352.70 L 939.76,353.40 L 939.04,354.54 L 938.71,355.07 L 938.19,355.85 L 937.66,356.59 L 937.57,356.71 L 937.04,357.24 L 936.72,357.55 L 935.77,358.45 L 935.25,358.94 L 933.90,360.18 L 933.18,360.84 L 931.46,362.41 L 930.56,363.23 L 928.49,365.11 L 927.42,366.08 L 925.02,368.24 L 923.78,369.35 L 921.08,371.77 L 919.69,373.01 L 916.71,375.68 L 915.18,377.04 L 911.94,379.93 L 910.29,381.40 L 906.81,384.49 L 905.04,386.05 L 901.35,389.33 L 899.48,390.98 L 895.60,394.42 L 891.68,397.89 L 883.36,405.23 L 870.36,416.67 L 865.93,420.56 L 857.43,428.05 L 853.25,431.73 L 845.38,438.68 L 843.46,440.38 L 839.78,443.65 L 837.96,445.26 L 834.49,448.34 L 832.79,449.86 L 829.56,452.74 L 827.98,454.15 L 825.01,456.79 L 823.56,458.09 L 820.88,460.49 L 819.58,461.66 L 817.21,463.80 L 816.06,464.83 L 814.02,466.69 L 813.04,467.58 L 811.34,469.13 L 810.54,469.86 L 809.22,471.09 L 808.60,471.66 L 807.68,472.54 L 807.26,472.93 L 806.75,473.45 L 806.47,473.80 L 806.54,473.88 L 806.99,473.78 L 807.25,473.70 L 808.00,473.33 L 810.91,471.42 L 811.04,471.32 L 811.57,470.93 L 811.87,470.70 L 812.71,470.07 L 813.17,469.72 L 814.32,468.85 L 814.94,468.39 L 816.37,467.31 L 817.12,466.74 L 818.83,465.46 L 819.71,464.79 L 821.66,463.32 L 822.67,462.56 L 824.85,460.92 L 825.97,460.08 L 828.36,458.27 L 830.81,456.43 L 836.25,452.32 L 839.06,450.21 L 845.11,445.64 L 848.20,443.31 L 854.72,438.39 L 864.85,430.75 L 868.30,428.15 L 874.93,423.17 L 878.20,420.72 L 884.38,416.09 L 887.40,413.84 L 892.99,409.68 L 895.69,407.67 L 900.54,404.09 L 901.70,403.23 L 903.86,401.65 L 904.91,400.88 L 906.84,399.47 L 907.77,398.79 L 909.45,397.57 L 910.25,396.99 L 911.66,395.98 L 912.33,395.50 L 913.46,394.70 L 913.98,394.34 L 914.81,393.77 L 915.18,393.52 L 915.68,393.20 L 916.06,393.00 L 916.40,393.00 L 916.71,393.49 L 916.56,394.75 L 916.54,394.81 L 916.37,395.15 L 916.27,395.35 L 915.94,395.96 L 915.76,396.30 L 915.29,397.17 L 915.04,397.63 L 914.43,398.74 L 913.78,399.91 L 912.11,402.92 L 911.22,404.53 L 909.10,408.32 L 907.98,410.31 L 905.48,414.76 L 904.19,417.06 L 901.37,422.05 L 899.93,424.61 L 896.86,430.03 L 892.06,438.50 L 891.65,439.22 L 890.65,440.98 L 890.12,441.91 L 888.89,444.08 L 888.25,445.21 L 886.80,447.77 L 886.04,449.10 L 884.37,452.05 L 883.51,453.57 L 881.62,456.88 L 880.66,458.58 L 878.57,462.26 L 877.51,464.14 L 875.22,468.16 L 874.06,470.21 L 871.59,474.56 L 870.33,476.78 L 867.68,481.45 L 866.33,483.82 L 863.50,488.81 L 862.07,491.33 L 859.07,496.61 L 857.55,499.28 L 854.40,504.84 L 852.80,507.66 L 849.49,513.49 L 847.82,516.44 L 844.36,522.52 L 842.62,525.60 L 839.02,531.93 L 837.21,535.13 L 833.48,541.70 L 829.72,548.32 L 821.83,562.21 L 817.83,569.26 L 809.51,583.92 L 805.30,591.34 L 796.59,606.67 L 792.20,614.41 L 783.17,630.32 L 778.62,638.33 L 769.33,654.70 L 764.65,662.94 L 755.15,679.69 L 726.12,730.83 L 721.23,739.43 L 711.63,756.34 L 706.86,764.74 L 697.53,781.17 L 692.90,789.32 L 683.88,805.18 L 679.42,813.04 L 670.77,828.25 L 666.49,835.77 L 658.26,850.24 L 654.20,857.38 L 646.43,871.03 L 644.52,874.38 L 640.79,880.93 L 638.94,884.17 L 635.35,890.47 L 633.57,893.60 L 630.12,899.66 L 628.41,902.66 L 625.10,908.46 L 623.46,911.33 L 620.31,916.86 L 618.75,919.59 L 615.75,924.85 L 614.27,927.44 L 611.44,932.40 L 610.04,934.85 L 607.38,939.51 L 606.07,941.80 L 603.58,946.16 L 602.36,948.29 L 600.05,952.32 L 598.92,954.29 L 596.81,957.99 L 595.77,959.79 L 593.85,963.15 L 592.92,964.78 L 591.20,967.77 L 590.36,969.23 L 588.85,971.86 L 588.12,973.12 L 586.82,975.38 L 586.20,976.46 L 585.12,978.32 L 584.60,979.21 L 583.75,980.67 L 583.35,981.36 L 582.73,982.41 L 582.45,982.89 L 582.06,983.53 L 581.76,984.00 L 581.68,984.10 L 581.33,984.45 L 581.12,984.66 L 580.51,985.20 L 580.18,985.50 L 579.34,986.23 L 578.90,986.62 L 577.84,987.52 L 576.74,988.46 L 573.96,990.80 L 572.48,992.03 L 569.05,994.86 L 567.27,996.32 L 563.34,999.54 L 561.33,1001.18 L 557.03,1004.68 L 552.66,1008.22 L 543.41,1015.68 L 538.79,1019.39 L 529.85,1026.53 L 527.68,1028.25 L 523.60,1031.48 L 521.61,1033.06 L 517.98,1035.91 L 516.23,1037.28 L 513.19,1039.64 L 511.75,1040.75 L 509.44,1042.51 L 508.91,1042.90 L 508.02,1043.57 L 507.60,1043.88 L 506.93,1044.35 L 506.63,1044.56 L 506.21,1044.83 L 505.88,1045.00 L 505.63,1045.00 L 505.26,1044.67 L 505.00,1043.88 L 505.00,1043.84 L 505.29,1043.19 L 505.49,1042.77 L 506.16,1041.39 L 506.53,1040.61 L 507.56,1038.53 L 508.11,1037.41 L 509.47,1034.68 L 510.19,1033.23 L 511.86,1029.88 L 512.74,1028.14 L 514.71,1024.21 L 515.73,1022.18 L 517.97,1017.71 L 519.13,1015.41 L 521.64,1010.44 L 522.92,1007.90 L 525.66,1002.47 L 527.06,999.70 L 530.03,993.84 L 531.53,990.87 L 534.70,984.62 L 536.30,981.46 L 539.64,974.87 L 541.34,971.53 L 544.84,964.63 L 546.61,961.15 L 550.26,953.98 L 561.63,931.63 L 563.58,927.81 L 567.75,919.63 L 569.87,915.46 L 574.37,906.64 L 576.65,902.16 L 581.43,892.78 L 583.85,888.03 L 588.87,878.18 L 591.41,873.21 L 596.62,862.96 L 599.26,857.80 L 604.63,847.24 L 610.04,836.62 L 621.16,814.81 L 626.73,803.86 L 637.93,781.88 L 643.51,770.93 L 654.46,749.44 L 657.16,744.13 L 662.47,733.71 L 665.10,728.55 L 670.22,718.48 L 672.76,713.50 L 677.67,703.87 L 684.73,690.00 L 689.30,681.03 L 698.24,663.47 L 700.45,659.13 L 704.80,650.61 L 706.95,646.38 L 711.16,638.12 L 713.25,634.02 L 717.30,626.07 L 719.31,622.14 L 723.18,614.54 L 725.09,610.79 L 728.76,603.60 L 730.56,600.06 L 733.99,593.33 L 735.68,590.03 L 738.85,583.80 L 740.40,580.76 L 743.30,575.09 L 744.70,572.33 L 747.29,567.27 L 748.54,564.82 L 750.78,560.42 L 751.86,558.30 L 753.75,554.60 L 754.65,552.85 L 756.15,549.91 L 756.85,548.54 L 757.95,546.40 L 759.10,544.16 L 760.09,542.24 L 761.75,538.97 L 762.53,537.43 L 763.80,534.84 L 764.39,533.63 L 765.29,531.67 L 765.70,530.75 L 766.26,529.32 L 766.50,528.67 L 766.75,527.70 L 766.84,527.26 L 766.81,526.68 L 766.76,526.43 L 766.47,526.15 L 765.79,526.00 L 765.58,526.00 L 764.75,526.13 L 764.27,526.21 L 762.96,526.50 L 762.25,526.66 L 760.52,527.07 L 759.62,527.29 L 757.56,527.82 L 755.43,528.37 L 750.48,529.72 L 747.93,530.42 L 742.59,531.93 L 739.93,532.70 L 734.80,534.21 L 733.55,534.59 L 731.21,535.30 L 730.07,535.65 L 727.97,536.30 L 726.97,536.62 L 725.21,537.20 L 724.37,537.48 L 723.01,537.95 L 722.39,538.18 L 721.50,538.53 L 720.79,538.90 L 720.76,538.93 L 720.56,539.30 L 720.44,539.54 L 720.06,540.32 L 719.84,540.77 L 719.28,541.95 L 718.98,542.59 L 718.24,544.17 L 717.85,545.01 L 716.95,546.97 L 716.48,548.00 L 715.41,550.33 L 714.85,551.54 L 713.63,554.23 L 712.99,555.62 L 711.61,558.66 L 710.90,560.22 L 709.36,563.60 L 708.58,565.33 L 706.90,569.04 L 706.04,570.94 L 704.22,574.97 L 703.29,577.02 L 701.33,581.36 L 700.34,583.56 L 698.25,588.20 L 697.19,590.55 L 694.97,595.47 L 693.85,597.97 L 691.51,603.17 L 690.33,605.80 L 687.87,611.27 L 686.63,614.03 L 684.06,619.75 L 682.76,622.64 L 680.09,628.61 L 677.38,634.64 L 671.67,647.39 L 668.77,653.87 L 662.69,667.46 L 659.60,674.36 L 653.18,688.72 L 649.94,695.98 L 643.22,711.02 L 639.83,718.62 L 632.85,734.25 L 629.34,742.14 L 622.14,758.29 L 611.14,783.00 L 607.31,791.59 L 599.83,808.38 L 596.13,816.70 L 588.90,832.89 L 585.33,840.91 L 578.39,856.44 L 574.97,864.11 L 568.35,878.90 L 565.09,886.20 L 558.83,900.19 L 555.74,907.07 L 549.86,920.18 L 548.42,923.40 L 545.61,929.66 L 544.22,932.76 L 541.51,938.78 L 540.17,941.76 L 537.58,947.53 L 536.30,950.38 L 533.82,955.88 L 532.60,958.60 L 530.24,963.83 L 529.07,966.41 L 526.84,971.37 L 525.74,973.81 L 523.63,978.47 L 522.59,980.77 L 520.61,985.14 L 519.64,987.29 L 517.80,991.35 L 516.89,993.34 L 515.19,997.09 L 514.35,998.92 L 512.79,1002.35 L 512.03,1004.02 L 510.62,1007.11 L 509.93,1008.61 L 508.66,1011.37 L 508.05,1012.70 L 506.94,1015.10 L 506.41,1016.25 L 505.46,1018.29 L 505.01,1019.27 L 504.22,1020.94 L 503.85,1021.73 L 503.23,1023.03 L 502.94,1023.63 L 502.49,1024.54 L 502.29,1024.95 L 502.01,1025.46 L 501.81,1025.78 L 501.78,1025.79 L 501.62,1025.58 L 501.53,1025.45 L 501.24,1024.95 L 501.09,1024.66 L 500.68,1023.87 L 500.45,1023.44 L 499.91,1022.35 L 499.63,1021.77 L 498.95,1020.38 L 498.60,1019.65 L 497.80,1017.96 L 497.38,1017.08 L 496.44,1015.09 L 495.96,1014.05 L 494.88,1011.75 L 494.33,1010.56 L 493.12,1007.95 L 492.50,1006.61 L 491.16,1003.68 L 490.47,1002.18 L 488.99,998.95 L 488.23,997.29 L 486.61,993.73 L 485.78,991.92 L 484.02,988.04 L 483.12,986.06 L 481.22,981.86 L 480.25,979.73 L 478.20,975.20 L 477.16,972.90 L 474.98,968.05 L 473.86,965.58 L 471.53,960.40 L 470.34,957.77 L 467.87,952.26 L 466.61,949.46 L 463.98,943.61 L 462.65,940.65 L 459.87,934.46 L 458.47,931.33 L 455.54,924.80 L 454.06,921.49 L 450.99,914.62 L 449.43,911.15 L 446.21,903.93 L 444.57,900.28 L 441.20,892.72 L 439.49,888.89 L 435.95,880.98 L 434.17,876.98 L 430.48,868.71 L 428.61,864.53 L 424.77,855.91 L 422.83,851.55 L 418.83,842.57 L 416.80,838.04 L 412.64,828.70 L 410.54,823.98 L 406.22,814.27 L 404.04,809.38 L 399.56,799.30 L 392.66,783.78 L 390.18,778.22 L 385.38,767.44 L 383.01,762.10 L 378.40,751.74 L 376.12,746.62 L 371.70,736.69 L 369.51,731.78 L 365.28,722.27 L 363.18,717.57 L 359.13,708.48 L 357.12,703.98 L 353.25,695.30 L 351.34,691.00 L 347.64,682.72 L 345.82,678.63 L 342.30,670.75 L 340.56,666.85 L 337.21,659.36 L 335.55,655.66 L 332.37,648.55 L 330.80,645.05 L 327.79,638.31 L 326.30,635.00 L 323.45,628.64 L 322.05,625.50 L 319.36,619.51 L 318.03,616.56 L 315.50,610.93 L 314.25,608.16 L 311.88,602.88 L 310.71,600.29 L 308.48,595.36 L 307.39,592.94 L 305.32,588.35 L 304.30,586.10 L 302.37,581.85 L 301.42,579.76 L 299.64,575.84 L 298.77,573.92 L 297.13,570.32 L 296.32,568.57 L 294.82,565.29 L 294.09,563.69 L 292.72,560.72 L 292.06,559.28 L 290.82,556.61 L 290.22,555.32 L 289.12,552.96 L 288.59,551.82 L 287.61,549.75 L 287.14,548.75 L 286.29,546.97 L 285.88,546.12 L 285.16,544.62 L 284.81,543.91 L 284.20,542.68 L 283.92,542.11 L 283.43,541.15 L 283.20,540.71 L 282.82,540.02 L 282.65,539.71 L 282.38,539.28 L 282.11,538.91 L 281.55,538.39 L 279.82,537.40 L 279.31,537.15 L 278.04,536.62 L 277.35,536.36 L 275.68,535.79 L 274.78,535.49 L 272.62,534.85 L 271.47,534.51 L 268.76,533.77 L 267.32,533.38 L 263.96,532.51 L 258.13,531.03 L 255.21,530.30 L 249.85,529.02 L 248.57,528.72 L 246.20,528.18 L 245.05,527.91 L 242.99,527.46 L 242.00,527.25 L 240.31,526.90 L 239.52,526.74 L 238.25,526.50 L 237.68,526.40 L 236.91,526.30 L 236.36,526.30 L 236.34,526.33 L 236.59,526.99 L 236.77,527.42 L 237.43,528.86 L 237.81,529.68 L 238.86,531.89 L 239.44,533.10 L 240.88,536.07 L 241.66,537.64 L 243.48,541.35 L 244.44,543.30 L 246.64,547.73 L 247.79,550.04 L 250.35,555.18 L 251.68,557.84 L 254.60,563.67 L 256.11,566.67 L 259.38,573.18 L 261.06,576.51 L 264.67,583.68 L 266.51,587.35 L 270.46,595.16 L 272.47,599.15 L 276.74,607.59 L 278.91,611.88 L 283.50,620.94 L 285.83,625.54 L 290.72,635.19 L 293.21,640.09 L 298.40,650.32 L 301.04,655.50 L 306.52,666.30 L 309.30,671.76 L 315.07,683.11 L 317.99,688.85 L 324.04,700.72 L 327.10,706.73 L 333.41,719.12 L 336.60,725.38 L 343.18,738.28 L 346.49,744.79 L 353.32,758.17 L 356.77,764.92 L 363.84,778.77 L 367.40,785.75 L 374.71,800.05 L 378.39,807.26 L 385.93,822.00 L 389.72,829.42 L 397.48,844.59 L 401.38,852.22 L 409.34,867.79 L 413.35,875.62 L 421.52,891.58 L 425.63,899.61 L 434.00,915.94 L 438.20,924.16 L 446.76,940.85 L 451.05,949.24 L 459.79,966.27 L 464.17,974.83 L 473.08,992.19 L 486.62,1018.59 L 487.54,1020.38 L 489.30,1023.84 L 490.17,1025.54 L 491.81,1028.77 L 492.61,1030.34 L 494.09,1033.26 L 494.80,1034.67 L 496.07,1037.20 L 496.67,1038.42 L 497.71,1040.49 L 498.19,1041.47 L 498.94,1043.02 L 499.28,1043.72 L 499.73,1044.67 L 500.00,1045.34 L 500.00,1045.69 L 499.61,1045.96 L 499.35,1046.02 L 498.41,1045.68 L 497.87,1045.43 L 496.33,1044.45 L 495.48,1043.88 Z" fill="rgba(254,254,254,1)"/>
</g>
</svg>